<svg xmlns="http://www.w3.org/2000/svg" xmlns:xlink="http://www.w3.org/1999/xlink" contentStyleType="text/css" data-diagram-type="DESCRIPTION" height="686px" preserveAspectRatio="none" style="width:1155px;height:686px;background:#FFFFFF;" version="1.1" viewBox="0 0 1155 686" width="1155px" zoomAndPan="magnify"><?plantuml 1.2026.6?><defs/><g><!--cluster CHI TI?T USE CASE K? HI?U SANG V?N B?N--><g class="cluster" data-qualified-name="CHI TI.T USE CASE K. HI.U SANG V.N B.N" data-source-line="17" id="ent0005"><rect fill="none" height="445" rx="2.5" ry="2.5" style="stroke:#94A3B8;stroke-width:1;" width="1096.28" x="45.19" y="104.71"/><text fill="#000000" font-family="Arial" font-size="14" font-weight="700" lengthAdjust="spacing" textLength="341.4141" x="422.623" y="119.7051">CHI TI&#7870;T USE CASE K&#221; HI&#7878;U SANG V&#258;N B&#7842;N</text></g><!--entity CameraOn--><g class="entity" data-qualified-name="CHI TI.T USE CASE K. HI.U SANG V.N B.N.CameraOn" data-source-line="18" id="ent0006"><ellipse cx="146.562" cy="331.7124" fill="#FFF7ED" rx="85.362" ry="19.4724" style="stroke:#EA580C;stroke-width:0.5;"/><text fill="#1F2937" font-family="Arial" font-size="14" lengthAdjust="spacing" textLength="143.1582" x="74.9829" y="336.3608">B&#7853;t ho&#7863;c t&#7855;t camera</text></g><!--entity Load--><g class="entity" data-qualified-name="CHI TI.T USE CASE K. HI.U SANG V.N B.N.Load" data-source-line="19" id="ent0007"><ellipse cx="722.4855" cy="511.7071" fill="#FFF7ED" rx="83.2855" ry="19.0571" style="stroke:#EA580C;stroke-width:0.5;"/><text fill="#1F2937" font-family="Arial" font-size="14" lengthAdjust="spacing" textLength="138.3594" x="653.3058" y="516.3555">T&#7843;i th&#432; vi&#7879;n k&#253; hi&#7879;u</text></g><!--entity Record--><g class="entity" data-qualified-name="CHI TI.T USE CASE K. HI.U SANG V.N B.N.Record" data-source-line="20" id="ent0008"><ellipse cx="428.2561" cy="257.7092" fill="#FFF7ED" rx="73.3461" ry="17.0692" style="stroke:#EA580C;stroke-width:0.5;"/><text fill="#1F2937" font-family="Arial" font-size="14" lengthAdjust="spacing" textLength="114.6934" x="370.9094" y="262.3576">Ghi m&#7851;u k&#253; hi&#7879;u</text></g><!--entity Label--><g class="entity" data-qualified-name="CHI TI.T USE CASE K. HI.U SANG V.N B.N.Label" data-source-line="21" id="ent0009"><ellipse cx="722.4858" cy="234.7136" fill="#FFF7ED" rx="72.0658" ry="26.0236" style="stroke:#EA580C;stroke-width:0.5;"/><text fill="#1F2937" font-family="Arial" font-size="14" lengthAdjust="spacing" textLength="97.7744" x="673.5986" y="231.2471">Nh&#7853;p nh&#227;n v&#224;</text><text fill="#1F2937" font-family="Arial" font-size="14" lengthAdjust="spacing" textLength="97.3711" x="673.8003" y="247.544">c&#226;u ti&#7871;ng Vi&#7879;t</text></g><!--entity Save--><g class="entity" data-qualified-name="CHI TI.T USE CASE K. HI.U SANG V.N B.N.Save" data-source-line="22" id="ent0010"><ellipse cx="722.4897" cy="340.7059" fill="#FFF7ED" rx="95.8797" ry="21.5759" style="stroke:#EA580C;stroke-width:0.5;"/><text fill="#1F2937" font-family="Arial" font-size="14" lengthAdjust="spacing" textLength="166.9336" x="639.0229" y="345.3544">L&#432;u m&#7851;u theo t&#224;i kho&#7843;n</text></g><!--entity Manage--><g class="entity" data-qualified-name="CHI TI.T USE CASE K. HI.U SANG V.N B.N.Manage" data-source-line="23" id="ent0011"><ellipse cx="146.5555" cy="467.7051" fill="#FFF7ED" rx="82.0255" ry="18.8051" style="stroke:#EA580C;stroke-width:0.5;"/><text fill="#1F2937" font-family="Arial" font-size="14" lengthAdjust="spacing" textLength="135.4268" x="78.8421" y="472.3535">Xem ho&#7863;c x&#243;a m&#7851;u</text></g><!--entity Detect--><g class="entity" data-qualified-name="CHI TI.T USE CASE K. HI.U SANG V.N B.N.Detect" data-source-line="24" id="ent0012"><ellipse cx="722.4884" cy="433.7056" fill="#FFF7ED" rx="90.0984" ry="23.7456" style="stroke:#EA580C;stroke-width:0.5;"/><text fill="#1F2937" font-family="Arial" font-size="14" lengthAdjust="spacing" textLength="136.8418" x="654.0675" y="433.6654">Ph&#225;t hi&#7879;n landmark</text><text fill="#1F2937" font-family="Arial" font-size="14" lengthAdjust="spacing" textLength="53.1426" x="695.9171" y="449.9622">b&#224;n tay</text></g><!--entity Classify--><g class="entity" data-qualified-name="CHI TI.T USE CASE K. HI.U SANG V.N B.N.Classify" data-source-line="25" id="ent0013"><ellipse cx="428.2605" cy="405.7059" fill="#FFF7ED" rx="68.9305" ry="24.7759" style="stroke:#EA580C;stroke-width:0.5;"/><text fill="#1F2937" font-family="Arial" font-size="14" lengthAdjust="spacing" textLength="98.6836" x="378.9187" y="404.0597">So kh&#7899;p chu&#7895;i</text><text fill="#1F2937" font-family="Arial" font-size="14" lengthAdjust="spacing" textLength="72.8506" x="391.8352" y="420.3566">b&#7857;ng DTW</text></g><!--entity Result--><g class="entity" data-qualified-name="CHI TI.T USE CASE K. HI.U SANG V.N B.N.Result" data-source-line="26" id="ent0014"><ellipse cx="722.4947" cy="156.7149" fill="#FFF7ED" rx="72.2747" ry="16.8549" style="stroke:#EA580C;stroke-width:0.5;"/><text fill="#1F2937" font-family="Arial" font-size="14" lengthAdjust="spacing" textLength="112.0547" x="666.4674" y="161.3634">Hi&#7875;n th&#7883; k&#7871;t qu&#7843;</text></g><!--entity Speak--><g class="entity" data-qualified-name="CHI TI.T USE CASE K. HI.U SANG V.N B.N.Speak" data-source-line="27" id="ent0015"><ellipse cx="428.2558" cy="154.7132" fill="#FFF7ED" rx="61.7158" ry="14.7432" style="stroke:#EA580C;stroke-width:0.5;"/><text fill="#1F2937" font-family="Arial" font-size="14" lengthAdjust="spacing" textLength="84.5605" x="385.9755" y="159.3616">&#272;&#7885;c k&#7871;t qu&#7843;</text></g><!--entity History--><g class="entity" data-qualified-name="CHI TI.T USE CASE K. HI.U SANG V.N B.N.History" data-source-line="28" id="ent0016"><ellipse cx="1034.4224" cy="160.7105" fill="#FFF7ED" rx="91.0524" ry="20.6105" style="stroke:#EA580C;stroke-width:0.5;"/><text fill="#1F2937" font-family="Arial" font-size="14" lengthAdjust="spacing" textLength="156.1191" x="956.3628" y="165.3589">L&#432;u v&#224;o nh&#7853;t k&#253; phi&#234;n</text></g><!--entity Rearm--><g class="entity" data-qualified-name="CHI TI.T USE CASE K. HI.U SANG V.N B.N.Rearm" data-source-line="29" id="ent0017"><ellipse cx="146.558" cy="229.7056" fill="#FFF7ED" rx="68.878" ry="16.1756" style="stroke:#EA580C;stroke-width:0.5;"/><text fill="#1F2937" font-family="Arial" font-size="14" lengthAdjust="spacing" textLength="103.5371" x="94.7894" y="234.354">Nh&#7853;n l&#7841;i c&#7917; ch&#7881;</text></g><!--entity User--><g class="entity" data-qualified-name="User" data-source-line="12" id="ent0001"><ellipse cx="146.5586" cy="21.06" fill="#F1F1F1" rx="8" ry="8" style="stroke:#181818;stroke-width:0.5;"/><path d="M146.5586,29.06 L146.5586,56.06 M133.5586,37.06 L159.5586,37.06 M146.5586,56.06 L133.5586,71.06 M146.5586,56.06 L159.5586,71.06" fill="none" style="stroke:#181818;stroke-width:0.5;"/><text fill="#000000" font-family="Arial" font-size="14" lengthAdjust="spacing" textLength="80.6572" x="106.23" y="85.5551">Ng&#432;&#7901;i d&#249;ng</text></g><!--entity Camera--><g class="entity" data-qualified-name="Camera" data-source-line="13" id="ent0002"><rect fill="#EFF6FF" height="36.2969" rx="2.5" ry="2.5" style="stroke:#94A3B8;stroke-width:0.5;" width="172.585" x="636.2" y="565.56"/><text fill="#000000" font-family="Arial" font-size="14" lengthAdjust="spacing" textLength="152.585" x="646.2" y="588.5551">Camera v&#224; MediaPipe</text></g><!--entity Database--><g class="entity" data-qualified-name="Database" data-source-line="14" id="ent0003"><rect fill="#EFF6FF" height="36.2969" rx="2.5" ry="2.5" style="stroke:#94A3B8;stroke-width:0.5;" width="159.8496" x="642.56" y="636.56"/><text fill="#000000" font-family="Arial" font-size="14" lengthAdjust="spacing" textLength="139.8496" x="652.56" y="659.5551">Supabase Database</text></g><!--entity Speaker--><g class="entity" data-qualified-name="Speaker" data-source-line="15" id="ent0004"><rect fill="#EFF6FF" height="36.2969" rx="2.5" ry="2.5" style="stroke:#94A3B8;stroke-width:0.5;" width="143.5186" x="356.5" y="52.56"/><text fill="#000000" font-family="Arial" font-size="14" lengthAdjust="spacing" textLength="123.5186" x="366.5" y="75.5551">Speech Synthesis</text></g><!--link User to CameraOn--><g class="link" data-entity-1="ent0001" data-entity-2="ent0006" data-link-type="association" data-source-line="32" id="lnk18"><path d="M105.84,65.79 C75.06,79.86 35.86,104.27 22.19,141.21 C6,184.98 6,202.44 22.19,246.21 C34.6,279.75 69.13,301.84 98.67,315.14" fill="none" id="User-CameraOn" style="stroke:#475569;stroke-width:1;"/></g><!--link User to Record--><g class="link" data-entity-1="ent0001" data-entity-2="ent0008" data-link-type="association" data-source-line="33" id="lnk19"><path d="M187.33,80.15 C247.06,124.35 357.92,206.4 405.09,241.31" fill="none" id="User-Record" style="stroke:#475569;stroke-width:1;"/></g><!--link User to Manage--><g class="link" data-entity-1="ent0001" data-entity-2="ent0011" data-link-type="association" data-source-line="34" id="lnk20"><path d="M105.84,65.79 C75.06,79.86 35.86,104.27 22.19,141.21 C6,184.98 6,307.44 22.19,351.21 C38.72,395.88 83.65,430.45 114.72,449.94" fill="none" id="User-Manage" style="stroke:#475569;stroke-width:1;"/></g><!--link User to Result--><g class="link" data-entity-1="ent0001" data-entity-2="ent0014" data-link-type="association" data-source-line="35" id="lnk21"><path d="M187.37,41.4 C253.75,27.53 390.66,6 501.61,34.71 C581.49,55.39 663.27,112.03 700.6,140.26" fill="none" id="User-Result" style="stroke:#475569;stroke-width:1;"/></g><!--link User to Speak--><g class="link" data-entity-1="ent0001" data-entity-2="ent0015" data-link-type="association" data-source-line="36" id="lnk22"><path d="M187.33,65.5 C242.69,86.08 341.96,122.99 393.75,142.25" fill="none" id="User-Speak" style="stroke:#475569;stroke-width:1;"/></g><!--link User to Rearm--><g class="link" data-entity-1="ent0001" data-entity-2="ent0017" data-link-type="association" data-source-line="37" id="lnk23"><path d="M146.56,89.13 C146.56,130.51 146.56,171.9 146.56,213.28" fill="none" id="User-Rearm" style="stroke:#475569;stroke-width:1;"/></g><!--link Record to Label--><g class="link" data-entity-1="ent0008" data-entity-2="ent0009" data-link-type="dependency" data-source-line="38" id="lnk24"><path d="M498.15,252.29 C544.38,248.65 600.1054,244.2616 646.5654,240.6116" fill="none" id="Record-to-Label" style="stroke:#475569;stroke-width:1;stroke-dasharray:7,7;"/><polygon fill="#475569" points="651.55,240.22,642.2644,236.9372,646.5654,240.6116,642.8909,244.9126,651.55,240.22" style="stroke:#475569;stroke-width:1;stroke-linejoin:miter;stroke-miterlimit:10;"/><text fill="#000000" font-family="Arial" font-size="13" lengthAdjust="spacing" textLength="63.0068" x="532.61" y="240.8969">&#171;include&#187;</text></g><!--link Record to Detect--><g class="link" data-entity-1="ent0008" data-entity-2="ent0012" data-link-type="dependency" data-source-line="39" id="lnk25"><path d="M440.8,274.84 C457.93,299.02 492.31,343.08 531.61,368.71 C568.09,392.5 609.394,407.2525 647.044,417.4525" fill="none" id="Record-to-Detect" style="stroke:#475569;stroke-width:1;stroke-dasharray:7,7;"/><polygon fill="#475569" points="651.87,418.76,644.2291,412.5458,647.044,417.4525,642.1372,420.2674,651.87,418.76" style="stroke:#475569;stroke-width:1;stroke-linejoin:miter;stroke-miterlimit:10;"/><text fill="#000000" font-family="Arial" font-size="13" lengthAdjust="spacing" textLength="63.0068" x="532.61" y="364.7769">&#171;include&#187;</text></g><!--link Record to Save--><g class="link" data-entity-1="ent0008" data-entity-2="ent0010" data-link-type="dependency" data-source-line="40" id="lnk26"><path d="M446.32,274.65 C465.32,292.27 497.82,318.91 531.61,330.71 C562.31,341.44 592.4916,345.2638 624.1716,346.0638" fill="none" id="Record-to-Save" style="stroke:#475569;stroke-width:1;stroke-dasharray:7,7;"/><polygon fill="#475569" points="629.17,346.19,620.2738,341.9641,624.1716,346.0638,620.0719,349.9615,629.17,346.19" style="stroke:#475569;stroke-width:1;stroke-linejoin:miter;stroke-miterlimit:10;"/><text fill="#000000" font-family="Arial" font-size="13" lengthAdjust="spacing" textLength="63.0068" x="532.61" y="326.7769">&#171;include&#187;</text></g><!--link Classify to Load--><g class="link" data-entity-1="ent0013" data-entity-2="ent0007" data-link-type="dependency" data-source-line="41" id="lnk27"><path d="M456.61,428.63 C476.28,443.95 504.09,463.31 531.61,474.71 C567.6,489.62 605.0162,497.8722 640.5862,503.2522" fill="none" id="Classify-to-Load" style="stroke:#475569;stroke-width:1;stroke-dasharray:7,7;"/><polygon fill="#475569" points="645.53,504,637.2294,498.699,640.5862,503.2522,636.033,506.6091,645.53,504" style="stroke:#475569;stroke-width:1;stroke-linejoin:miter;stroke-miterlimit:10;"/><text fill="#000000" font-family="Arial" font-size="13" lengthAdjust="spacing" textLength="63.0068" x="532.61" y="470.7769">&#171;include&#187;</text></g><!--link Classify to Detect--><g class="link" data-entity-1="ent0013" data-entity-2="ent0012" data-link-type="dependency" data-source-line="42" id="lnk28"><path d="M471.09,425.6 C489.25,433.19 511.04,440.93 531.61,444.71 C568.79,451.56 605.7282,450.6103 640.6982,446.8803" fill="none" id="Classify-to-Detect" style="stroke:#475569;stroke-width:1;stroke-dasharray:7,7;"/><polygon fill="#475569" points="645.67,446.35,636.2965,443.3271,640.6982,446.8803,637.145,451.282,645.67,446.35" style="stroke:#475569;stroke-width:1;stroke-linejoin:miter;stroke-miterlimit:10;"/><text fill="#000000" font-family="Arial" font-size="13" lengthAdjust="spacing" textLength="63.0068" x="532.61" y="440.7769">&#171;include&#187;</text></g><!--link Classify to Result--><g class="link" data-entity-1="ent0013" data-entity-2="ent0014" data-link-type="dependency" data-source-line="43" id="lnk29"><path d="M450.94,382.17 C470.71,361.52 501.35,331.48 531.61,309.71 C558.24,290.55 575.22,299.6 596.61,274.71 C622.45,244.65 598.59,218.76 626.61,190.71 C637.37,179.94 647.0532,174.2189 661.3832,169.1789" fill="none" id="Classify-to-Result" style="stroke:#475569;stroke-width:1;stroke-dasharray:7,7;"/><polygon fill="#475569" points="666.1,167.52,656.2827,166.7327,661.3832,169.1789,658.937,174.2795,666.1,167.52" style="stroke:#475569;stroke-width:1;stroke-linejoin:miter;stroke-miterlimit:10;"/><text fill="#000000" font-family="Arial" font-size="13" lengthAdjust="spacing" textLength="63.0068" x="532.61" y="270.7769">&#171;include&#187;</text></g><!--link Speak to Result--><g class="link" data-entity-1="ent0015" data-entity-2="ent0014" data-link-type="dependency" data-source-line="44" id="lnk30"><path d="M490.17,155.13 C536.67,155.45 595.8701,155.8563 644.8401,156.1863" fill="none" id="Speak-to-Result" style="stroke:#475569;stroke-width:1;stroke-dasharray:7,7;"/><polygon fill="#475569" points="649.84,156.22,640.8672,152.1594,644.8401,156.1863,640.8132,160.1593,649.84,156.22" style="stroke:#475569;stroke-width:1;stroke-linejoin:miter;stroke-miterlimit:10;"/><text fill="#000000" font-family="Arial" font-size="13" lengthAdjust="spacing" textLength="61.1851" x="533.61" y="151.4869">&#171;extend&#187;</text></g><!--link Result to History--><g class="link" data-entity-1="ent0014" data-entity-2="ent0016" data-link-type="dependency" data-source-line="45" id="lnk31"><path d="M794.98,157.63 C839.05,158.2 890.9504,158.8753 938.1204,159.4853" fill="none" id="Result-to-History" style="stroke:#475569;stroke-width:1;stroke-dasharray:7,7;"/><polygon fill="#475569" points="943.12,159.55,934.1725,155.434,938.1204,159.4853,934.069,163.4333,943.12,159.55" style="stroke:#475569;stroke-width:1;stroke-linejoin:miter;stroke-miterlimit:10;"/><text fill="#000000" font-family="Arial" font-size="13" lengthAdjust="spacing" textLength="63.0068" x="849.37" y="154.4169">&#171;include&#187;</text></g><!--link Rearm to Classify--><g class="link" data-entity-1="ent0017" data-entity-2="ent0013" data-link-type="dependency" data-source-line="46" id="lnk32"><path d="M171.89,245.02 C221.73,276.38 331.3281,345.3471 388.6681,381.4271" fill="none" id="Rearm-to-Classify" style="stroke:#475569;stroke-width:1;stroke-dasharray:7,7;"/><polygon fill="#475569" points="392.9,384.09,387.4128,375.9113,388.6681,381.4271,383.1522,382.6824,392.9,384.09" style="stroke:#475569;stroke-width:1;stroke-linejoin:miter;stroke-miterlimit:10;"/><text fill="#000000" font-family="Arial" font-size="13" lengthAdjust="spacing" textLength="61.1851" x="262.92" y="298.0169">&#171;extend&#187;</text></g><!--link CameraOn to Camera--><g class="link" data-entity-1="ent0006" data-entity-2="ent0002" data-link-type="association" data-source-line="47" id="lnk33"><path d="M177.37,350.28 C217,374.52 289.63,417.4 354.92,447.71 C471.91,502.02 505.52,505.29 626.61,549.71 C640.41,554.77 655.37,560.17 669.24,565.15" fill="none" id="CameraOn-Camera" style="stroke:#475569;stroke-width:1;"/></g><!--link Detect to Camera--><g class="link" data-entity-1="ent0012" data-entity-2="ent0002" data-link-type="association" data-source-line="48" id="lnk34"><path d="M640.96,444.29 C611.79,452.44 581.79,466.84 564.11,492.21 C553.95,506.8 553.66,517.83 564.11,532.21 C580.93,555.37 608.43,568.32 635.83,575.49" fill="none" id="Detect-Camera" style="stroke:#475569;stroke-width:1;"/></g><!--link Load to Database--><g class="link" data-entity-1="ent0007" data-entity-2="ent0003" data-link-type="association" data-source-line="49" id="lnk35"><path d="M644.87,518.76 C614.58,525.75 582.72,539.28 564.11,565.21 C554.52,578.57 554.48,588.88 564.11,602.21 C582.25,627.34 612.9,640.64 642.43,647.6" fill="none" id="Load-Database" style="stroke:#475569;stroke-width:1;"/></g><!--link Save to Database--><g class="link" data-entity-1="ent0010" data-entity-2="ent0003" data-link-type="association" data-source-line="50" id="lnk36"><path d="M648.05,354.56 C616.58,364.49 582.91,381.43 564.11,410.21 C517.44,481.65 514.16,533.03 564.11,602.21 C582.25,627.34 612.9,640.64 642.43,647.6" fill="none" id="Save-Database" style="stroke:#475569;stroke-width:1;"/></g><!--link Manage to Database--><g class="link" data-entity-1="ent0011" data-entity-2="ent0003" data-link-type="association" data-source-line="51" id="lnk37"><path d="M159.24,486.75 C177.43,514.53 215.29,565.49 261.92,589.71 C383.66,652.95 546.73,660.83 642.32,659.01" fill="none" id="Manage-Database" style="stroke:#475569;stroke-width:1;"/></g><!--link Speak to Speaker--><g class="link" data-entity-1="ent0015" data-entity-2="ent0004" data-link-type="association" data-source-line="52" id="lnk38"><path d="M428.26,139.62 C428.26,122.84 428.26,106.06 428.26,89.28" fill="none" id="Speak-Speaker" style="stroke:#475569;stroke-width:1;"/></g><?plantuml-src VLJBRjD05DtxAwxITIkWRrHLIjEugMX3HTB2efk9FOb7TiPXF6uR8JOWWH12OiS2LUfZ1weeOe5m12nSzJ_cJnZFE6Ni53QHS-yvT-uvP-m0Tpdm41ZfUHnSmh33IKYjo2TqW1ZgGmSvVe-5CNLhOH0oEFG8nqRVnLqK1zmEAM-YFeOg8oWm-f67tF2Gq1vqKH2PJEJmaBNuCC0GSUBuVMIUMsKiFDH7JiqjpiylB1lDtGWxAC9hfTscRDjUhA_V0WoPYraEgbVdb-xK9a6PX1norxwtFBjeG1v9Nn3j1SL9otFLsRKbor9AeDBiNL-AqJ41D_r1UnL0KJQQMMnCXafDMiGG7AGdi8rTWdR802jWtfYgs_Q2RPkKLZn07RaUh2Ek7XH-_ETMnW1ZnuFMa78FHoHI15b4FcOt-C9MZKreRuhaLnjsMtMeLUNFW_GO6fjYz6eNMjNc1knTlMZ2caZEcXLuPW74sZIeoDe51oyKoNS7k4Y-S72K64FNGseosY8v9y2zwqiu86BqceAV_WGlUumLQIj4hadOy0ZqHV8vBWDbB38F4zhqv3e3e5vwJZERzwcJdiN0YKX-opkubt6vFWHrS61Ijwulu_mOwLi8F3qXu6V2pgcs41rWa_04zyUwZz9lI7CLSXjHr2jWTxpqbElLAGI8kdt4_7tQIKyeS3JKcM8kCp5PhL0k84OV1-1uiHXz898XagzIo7hxiVOtG554kaEJrP2dl9HZ9VCj-58uXwUnL95R5idNrOHVlHUZTyu4K5sO2N-afQ5qLsMUXJ7mIFf9szCWaNmDXXDfIBqYEINWYD65r256R_954EjRpoqhUqTWMds1fl_Ubq8rpxbGopqkuPIuGathAC6oe_LGc9bPrNS1xiFA2g5E4BjuTTLiws3-tSykHgaxpaMFb_VvV_rRvnSGMbW9ePILs_Y8O-gg_LGjQ-V9J0YGBgZ-pL650UCeIjbO-RQbgj8uhes_JfPoPgAgexi5hGGLWiFi3m00?></g></svg>